<svg xmlns="http://www.w3.org/2000/svg" viewBox="0 0 1200 600" role="img" aria-label="Hussein Method cover">
  <defs>
    <linearGradient id="g" x1="0" x2="1">
      <stop offset="0%" stop-color="#0b0f19"/>
      <stop offset="100%" stop-color="#121826"/>
    </linearGradient>
    <linearGradient id="accent" x1="0" x2="1">
      <stop offset="0%" stop-color="#8b5cf6"/>
      <stop offset="100%" stop-color="#22d3ee"/>
    </linearGradient>
    <pattern id="dots" width="24" height="24" patternUnits="userSpaceOnUse">
      <circle cx="2" cy="2" r="2" fill="rgba(255,255,255,0.06)" />
    </pattern>
    <filter id="glow" x="-50%" y="-50%" width="200%" height="200%">
      <feGaussianBlur stdDeviation="30" result="b"/>
      <feMerge>
        <feMergeNode in="b"/>
        <feMergeNode in="SourceGraphic"/>
      </feMerge>
    </filter>
  </defs>
  <rect width="1200" height="600" fill="url(#g)"/>
  <rect width="1200" height="600" fill="url(#dots)" opacity="0.35"/>
  <g filter="url(#glow)">
    <path d="M0,520 C260,420 420,520 600,460 C780,400 940,420 1200,340 L1200,600 L0,600 Z" fill="url(#accent)" opacity="0.18"/>
  </g>
  <g transform="translate(120,220)">
    <rect x="0" y="0" width="360" height="220" rx="16" fill="rgba(255,255,255,0.04)" stroke="rgba(255,255,255,0.12)"/>
    <rect x="400" y="20" width="300" height="16" rx="8" fill="#8b5cf6"/>
    <rect x="400" y="52" width="220" height="12" rx="6" fill="rgba(255,255,255,0.35)"/>
    <rect x="400" y="76" width="260" height="12" rx="6" fill="rgba(255,255,255,0.2)"/>
    <g transform="translate(400,120)" fill="none" stroke="rgba(255,255,255,0.22)">
      <rect x="0" y="0" width="76" height="30" rx="15"/>
      <rect x="86" y="0" width="66" height="30" rx="15"/>
      <rect x="162" y="0" width="74" height="30" rx="15"/>
    </g>
  </g>
</svg>